<svg xmlns="http://www.w3.org/2000/svg" xmlns:xlink="http://www.w3.org/1999/xlink" width="500" zoomAndPan="magnify" viewBox="0 0 375 374.999991" height="500" preserveAspectRatio="xMidYMid meet" version="1.0"><defs><g/><clipPath id="2f11d7013e"><path d="M 32 135 L 136 135 L 136 315.753906 L 32 315.753906 Z M 32 135 " clip-rule="nonzero"/></clipPath><clipPath id="228715af20"><path d="M 21.90625 60 L 145.65625 60 L 145.65625 163 L 21.90625 163 Z M 21.90625 60 " clip-rule="nonzero"/></clipPath><clipPath id="bbe17c4053"><path d="M 61 30.933594 L 106 30.933594 L 106 143 L 61 143 Z M 61 30.933594 " clip-rule="nonzero"/></clipPath></defs><rect x="-37.5" width="450" fill="#ffffff" y="-37.499999" height="449.999989" fill-opacity="1"/><rect x="-37.5" width="450" fill="#ffffff" y="-37.499999" height="449.999989" fill-opacity="1"/><g clip-path="url(#2f11d7013e)"><path fill="#32620e" d="M 32.324219 135.230469 C 33.367188 151.902344 42.355469 166.492188 55.511719 175.214844 L 45.480469 242.429688 L 42.609375 261.1875 L 54.074219 276.421875 C 63.972656 289.578125 73.875 302.734375 83.773438 315.890625 C 93.671875 302.734375 103.574219 289.578125 113.472656 276.421875 L 124.9375 261.1875 L 122.066406 242.429688 L 112.035156 175.214844 C 125.191406 166.492188 134.179688 151.898438 135.09375 135.230469 L 119.066406 149.816406 C 116.722656 154.246094 113.726562 158.285156 109.949219 161.671875 C 106.300781 164.929688 102.003906 167.402344 97.441406 169.230469 L 99.136719 181.339844 L 110.597656 257.542969 L 90.539062 284.246094 L 83.78125 181.992188 L 77.003906 284.246094 L 56.816406 257.542969 L 68.28125 181.339844 L 70.105469 169.230469 C 65.417969 167.402344 61.246094 164.929688 57.597656 161.671875 C 53.824219 158.285156 50.691406 154.246094 48.480469 149.816406 Z M 32.324219 135.230469 " fill-opacity="1" fill-rule="evenodd"/></g><g clip-path="url(#228715af20)"><path fill="#ccc14f" d="M 113.347656 139.65625 C 112.4375 143.5625 110.609375 147.210938 108.265625 150.335938 C 105.140625 154.636719 100.972656 158.023438 96.023438 160.105469 C 94.328125 160.886719 92.503906 161.535156 90.554688 161.929688 C 88.339844 162.449219 86.125 162.710938 83.78125 162.710938 C 81.4375 162.710938 79.222656 162.449219 77.003906 161.929688 C 75.046875 161.535156 73.230469 160.886719 71.535156 160.105469 C 66.585938 158.023438 62.417969 154.636719 59.160156 150.335938 C 56.816406 147.210938 55.121094 143.5625 54.078125 139.65625 L 26.722656 96.542969 L 54.992188 122.074219 C 56.167969 118.683594 57.859375 115.691406 60.074219 112.953125 L 21.90625 60.199219 L 71.011719 104.484375 L 71.011719 119.464844 C 70.359375 119.984375 69.835938 120.640625 69.316406 121.292969 C 67.105469 124.285156 65.796875 127.804688 65.667969 131.839844 C 65.667969 131.972656 65.667969 132.105469 65.667969 132.234375 C 65.667969 138.097656 68.535156 143.308594 72.832031 146.566406 C 72.960938 146.695312 73.222656 146.828125 73.480469 147.085938 C 74.78125 147.996094 76.347656 148.777344 77.910156 149.296875 C 79.734375 149.949219 81.6875 150.210938 83.773438 150.210938 C 85.730469 150.210938 87.679688 149.949219 89.503906 149.296875 C 91.199219 148.777344 92.628906 147.996094 94.0625 147.085938 C 94.324219 146.824219 94.453125 146.691406 94.710938 146.566406 C 99.011719 143.308594 101.742188 138.097656 101.742188 132.234375 C 101.742188 132.105469 101.742188 131.972656 101.742188 131.839844 C 101.742188 127.804688 100.3125 124.285156 98.09375 121.292969 C 97.699219 120.640625 97.179688 119.992188 96.53125 119.464844 L 96.53125 104.484375 C 112.941406 89.636719 129.226562 74.917969 145.636719 60.199219 L 107.46875 112.953125 C 109.679688 115.691406 111.375 118.683594 112.550781 122.074219 C 121.929688 113.472656 131.4375 105.011719 140.820312 96.542969 Z M 113.347656 139.65625 " fill-opacity="1" fill-rule="evenodd"/></g><g clip-path="url(#bbe17c4053)"><path fill="#32620e" d="M 90.546875 124.933594 C 92.503906 126.761719 93.671875 129.367188 93.671875 132.230469 C 93.671875 137.699219 89.242188 142.128906 83.773438 142.128906 C 78.304688 142.128906 73.742188 137.699219 73.742188 132.230469 C 73.742188 129.359375 75.042969 126.761719 77 124.933594 L 77 74.003906 C 68.011719 71.136719 61.628906 62.804688 61.628906 52.902344 C 61.636719 40.660156 71.535156 30.761719 83.78125 30.761719 C 96.023438 30.761719 105.921875 40.660156 105.921875 52.902344 C 105.921875 62.804688 99.410156 71.140625 90.554688 74.003906 L 90.554688 124.933594 Z M 83.78125 43.003906 C 89.25 43.003906 93.679688 47.433594 93.679688 52.902344 C 93.679688 58.503906 89.25 62.933594 83.78125 62.933594 C 78.308594 62.933594 73.75 58.503906 73.75 52.902344 C 73.75 47.433594 78.304688 43.003906 83.78125 43.003906 Z M 83.78125 43.003906 " fill-opacity="1" fill-rule="evenodd"/></g><path stroke-linecap="butt" transform="matrix(6.292954, 0, 0, 6.292954, 126.467809, 39.130043)" fill="none" stroke-linejoin="miter" d="M 11.247848 7.15564 L 11.247848 7.482767 C 10.740708 7.529942 10.330403 7.662779 10.018174 7.881278 C 9.705324 8.099155 9.463859 8.370416 9.292536 8.69506 C 9.127421 9.019704 9.018172 9.400214 8.965409 9.83659 C 8.918234 10.272966 8.894646 10.744723 8.894646 11.251863 L 8.894646 13.782595 L 19.697278 13.782595 L 19.697278 11.898047 C 19.697278 11.272968 19.670586 10.700651 19.617824 10.181718 C 19.570648 9.662163 19.467606 9.21089 19.308078 8.827897 C 19.154756 8.438697 18.921981 8.128951 18.609131 7.898658 C 18.296281 7.668987 17.874803 7.529942 17.344076 7.482767 L 17.344076 7.15564 L 26.041178 7.15564 L 26.041178 7.482767 C 25.534039 7.55353 25.121251 7.692575 24.802193 7.898658 C 24.489964 8.105363 24.247878 8.376623 24.077176 8.713061 C 23.912061 9.048878 23.802812 9.429388 23.749429 9.85397 C 23.702253 10.278552 23.678665 10.744723 23.678665 11.251863 L 23.678665 26.646684 C 23.678665 27.183619 23.70846 27.682069 23.76743 28.142032 C 23.831986 28.59641 23.941236 29.006094 24.094557 29.372327 C 24.254085 29.731732 24.489964 30.020994 24.802193 30.238872 C 25.121251 30.45737 25.534039 30.602001 26.041178 30.672765 L 26.041178 30.999891 L 17.344076 30.999891 L 17.344076 30.672765 C 17.851215 30.625589 18.2609 30.498338 18.573749 30.292255 C 18.886599 30.08555 19.124961 29.820497 19.290076 29.495853 C 19.461399 29.171209 19.570648 28.79132 19.617824 28.354323 C 19.670586 27.917948 19.697278 27.434396 19.697278 26.903668 L 19.697278 15.525616 L 8.894646 15.525616 L 8.894646 26.646684 C 8.894646 27.154445 8.918234 27.643583 8.965409 28.115962 C 9.018172 28.587719 9.127421 29.006094 9.292536 29.372327 C 9.463859 29.731732 9.705324 30.026581 10.018174 30.256873 C 10.330403 30.486544 10.740708 30.625589 11.247848 30.672765 L 11.247848 30.999891 L 2.550745 30.999891 L 2.550745 30.672765 C 3.087059 30.602001 3.512262 30.451163 3.824491 30.221491 C 4.137341 29.991199 4.370116 29.702557 4.523437 29.354326 C 4.682966 29.000507 4.786008 28.61379 4.833184 28.195416 C 4.886567 27.770834 4.912638 27.32825 4.912638 26.868286 L 4.912638 11.499536 C 4.912638 11.015984 4.886567 10.54733 4.833184 10.092953 C 4.786008 9.632989 4.676759 9.222684 4.506057 8.863279 C 4.340942 8.497667 4.107546 8.193507 3.807111 7.952041 C 3.506055 7.709955 3.087059 7.55353 2.550745 7.482767 L 2.550745 7.15564 Z M 11.247848 7.15564 " stroke="#ccc14f" stroke-width="2.718645" stroke-opacity="1" stroke-miterlimit="4"/><g fill="#e6df9f" fill-opacity="1"><g transform="translate(134.334002, 234.211621)"><g><path d="M 62.9375 -150.0625 L 62.9375 -148.015625 C 59.75 -147.710938 57.164062 -146.875 55.1875 -145.5 C 53.207031 -144.132812 51.6875 -142.425781 50.625 -140.375 C 49.5625 -138.320312 48.878906 -135.925781 48.578125 -133.1875 C 48.273438 -130.445312 48.125 -127.484375 48.125 -124.296875 L 48.125 -108.328125 L 116.078125 -108.328125 L 116.078125 -120.1875 C 116.078125 -124.144531 115.925781 -127.753906 115.625 -131.015625 C 115.320312 -134.285156 114.675781 -137.132812 113.6875 -139.5625 C 112.695312 -142 111.210938 -143.941406 109.234375 -145.390625 C 107.265625 -146.835938 104.609375 -147.710938 101.265625 -148.015625 L 101.265625 -150.0625 L 156 -150.0625 L 156 -148.015625 C 152.800781 -147.554688 150.210938 -146.679688 148.234375 -145.390625 C 146.265625 -144.097656 144.742188 -142.382812 143.671875 -140.25 C 142.609375 -138.125 141.925781 -135.726562 141.625 -133.0625 C 141.320312 -130.40625 141.171875 -127.484375 141.171875 -124.296875 L 141.171875 -27.375 C 141.171875 -24.019531 141.359375 -20.898438 141.734375 -18.015625 C 142.117188 -15.128906 142.804688 -12.546875 143.796875 -10.265625 C 144.785156 -7.984375 146.265625 -6.15625 148.234375 -4.78125 C 150.210938 -3.414062 152.800781 -2.503906 156 -2.046875 L 156 0 L 101.265625 0 L 101.265625 -2.046875 C 104.453125 -2.359375 107.035156 -3.160156 109.015625 -4.453125 C 110.992188 -5.742188 112.515625 -7.414062 113.578125 -9.46875 C 114.640625 -11.519531 115.320312 -13.910156 115.625 -16.640625 C 115.925781 -19.378906 116.078125 -22.421875 116.078125 -25.765625 L 116.078125 -97.375 L 48.125 -97.375 L 48.125 -27.375 C 48.125 -24.175781 48.273438 -21.09375 48.578125 -18.125 C 48.878906 -15.164062 49.5625 -12.546875 50.625 -10.265625 C 51.6875 -7.984375 53.207031 -6.117188 55.1875 -4.671875 C 57.164062 -3.234375 59.75 -2.359375 62.9375 -2.046875 L 62.9375 0 L 8.203125 0 L 8.203125 -2.046875 C 11.554688 -2.503906 14.21875 -3.453125 16.1875 -4.890625 C 18.164062 -6.335938 19.648438 -8.164062 20.640625 -10.375 C 21.628906 -12.582031 22.273438 -15.015625 22.578125 -17.671875 C 22.878906 -20.335938 23.03125 -23.113281 23.03125 -26 L 23.03125 -122.703125 C 23.03125 -125.742188 22.878906 -128.707031 22.578125 -131.59375 C 22.273438 -134.476562 21.585938 -137.0625 20.515625 -139.34375 C 19.453125 -141.625 17.972656 -143.523438 16.078125 -145.046875 C 14.179688 -146.566406 11.554688 -147.554688 8.203125 -148.015625 L 8.203125 -150.0625 Z M 62.9375 -150.0625 "/></g></g></g><path stroke-linecap="butt" transform="matrix(6.292954, 0, 0, 6.292954, 202.897974, 118.173494)" fill="none" stroke-linejoin="miter" d="M 22.995161 7.155563 L 22.995161 7.48269 C 21.980261 7.671393 21.334698 8.093492 21.05723 8.748366 C 20.780383 9.40262 20.641338 10.249301 20.641338 11.287168 L 20.641338 23.567768 C 20.641338 24.63543 20.464429 25.647226 20.110611 26.602536 C 19.762379 27.552259 19.231652 28.390249 18.517808 29.115267 C 17.804584 29.840904 16.922521 30.416325 15.87286 30.840907 C 14.822579 31.259281 13.607802 31.46909 12.22729 31.46909 C 10.682283 31.46909 9.195626 31.127065 7.767938 30.442396 C 6.346457 29.75276 5.128577 28.838419 4.114298 27.699993 L 4.043534 27.593848 L 7.697174 21.577074 L 8.024922 21.718601 C 7.906982 22.226362 7.791526 22.727294 7.679794 23.22264 C 7.573648 23.718606 7.520265 24.207744 7.520265 24.691917 C 7.520265 25.369758 7.641308 26.007252 7.883394 26.602536 C 8.12486 27.192854 8.45509 27.711787 8.874086 28.159957 C 9.298668 28.60254 9.800221 28.950151 10.378124 29.204032 C 10.962234 29.457291 11.593521 29.584541 12.271362 29.584541 C 13.067764 29.584541 13.74933 29.445497 14.315439 29.16865 C 14.881548 28.891182 15.332822 28.516879 15.66926 28.045121 C 16.011284 27.572743 16.258957 27.030221 16.412278 26.416936 C 16.571807 25.797444 16.651261 25.163675 16.651261 24.514387 L 16.651261 11.464077 C 16.651261 10.886174 16.621465 10.355446 16.562496 9.871895 C 16.503526 9.388343 16.394898 8.972451 16.235369 8.62422 C 16.07584 8.270401 15.839962 7.999141 15.527732 7.810437 C 15.214882 7.615527 14.805198 7.506278 14.298058 7.48269 L 14.298058 7.155563 Z M 22.995161 7.155563 " stroke="#ccc14f" stroke-width="2.718645" stroke-opacity="1" stroke-miterlimit="4"/><g fill="#e6df9f" fill-opacity="1"><g transform="translate(233.576125, 313.255072)"><g><path d="M 114.03125 -150.0625 L 114.03125 -148.015625 C 107.644531 -146.796875 103.578125 -144.132812 101.828125 -140.03125 C 100.078125 -135.925781 99.203125 -130.601562 99.203125 -124.0625 L 99.203125 -46.75 C 99.203125 -40.0625 98.097656 -33.710938 95.890625 -27.703125 C 93.691406 -21.703125 90.347656 -16.421875 85.859375 -11.859375 C 81.378906 -7.296875 75.832031 -3.679688 69.21875 -1.015625 C 62.601562 1.640625 54.960938 2.96875 46.296875 2.96875 C 36.566406 2.96875 27.21875 0.800781 18.25 -3.53125 C 9.28125 -7.863281 1.597656 -13.601562 -4.796875 -20.75 L -5.25 -21.4375 L 17.78125 -59.296875 L 19.84375 -58.390625 C 19.082031 -55.191406 18.359375 -52.035156 17.671875 -48.921875 C 16.992188 -45.804688 16.65625 -42.726562 16.65625 -39.6875 C 16.65625 -35.425781 17.410156 -31.429688 18.921875 -27.703125 C 20.441406 -23.984375 22.53125 -20.71875 25.1875 -17.90625 C 27.851562 -15.09375 31.007812 -12.882812 34.65625 -11.28125 C 38.3125 -9.6875 42.269531 -8.890625 46.53125 -8.890625 C 51.539062 -8.890625 55.832031 -9.765625 59.40625 -11.515625 C 62.976562 -13.265625 65.828125 -15.617188 67.953125 -18.578125 C 70.085938 -21.546875 71.648438 -24.96875 72.640625 -28.84375 C 73.628906 -32.726562 74.125 -36.722656 74.125 -40.828125 L 74.125 -122.921875 C 74.125 -126.578125 73.929688 -129.921875 73.546875 -132.953125 C 73.171875 -135.992188 72.488281 -138.617188 71.5 -140.828125 C 70.507812 -143.035156 69.023438 -144.742188 67.046875 -145.953125 C 65.066406 -147.171875 62.484375 -147.859375 59.296875 -148.015625 L 59.296875 -150.0625 Z M 114.03125 -150.0625 "/></g></g></g></svg>