<svg xmlns="http://www.w3.org/2000/svg" xmlns:xlink="http://www.w3.org/1999/xlink" width="500" zoomAndPan="magnify" viewBox="0 0 375 374.999991" height="500" preserveAspectRatio="xMidYMid meet" version="1.0"><defs><g/><clipPath id="2b74c0d2ca"><path d="M 95 161 L 154 161 L 154 263.964844 L 95 263.964844 Z M 95 161 " clip-rule="nonzero"/></clipPath><clipPath id="a85ebcf5c9"><path d="M 89.914062 119 L 159.972656 119 L 159.972656 178 L 89.914062 178 Z M 89.914062 119 " clip-rule="nonzero"/></clipPath><clipPath id="9461b3a97f"><path d="M 112 102.71875 L 138 102.71875 L 138 166 L 112 166 Z M 112 102.71875 " clip-rule="nonzero"/></clipPath></defs><rect x="-37.5" width="450" fill="#ffffff" y="-37.499999" height="449.999989" fill-opacity="1"/><rect x="-37.5" width="450" fill="#ffffff" y="-37.499999" height="449.999989" fill-opacity="1"/><g clip-path="url(#2b74c0d2ca)"><path fill="#32620e" d="M 95.8125 161.765625 C 96.402344 171.203125 101.492188 179.464844 108.941406 184.402344 L 103.261719 222.453125 L 101.636719 233.070312 L 108.125 241.699219 C 113.730469 249.144531 119.335938 256.59375 124.941406 264.042969 C 130.542969 256.59375 136.148438 249.144531 141.753906 241.699219 L 148.242188 233.070312 L 146.617188 222.453125 L 140.941406 184.402344 C 148.386719 179.464844 153.476562 171.203125 153.992188 161.765625 L 144.921875 170.023438 C 143.59375 172.53125 141.894531 174.816406 139.757812 176.734375 C 137.691406 178.578125 135.261719 179.980469 132.679688 181.011719 L 133.636719 187.871094 L 140.125 231.007812 L 128.769531 246.128906 L 124.941406 188.238281 L 121.109375 246.128906 L 109.679688 231.007812 L 116.167969 187.871094 L 117.203125 181.011719 C 114.546875 179.980469 112.1875 178.578125 110.121094 176.734375 C 107.984375 174.816406 106.210938 172.53125 104.960938 170.023438 Z M 95.8125 161.765625 " fill-opacity="1" fill-rule="evenodd"/></g><g clip-path="url(#a85ebcf5c9)"><path fill="#ccc14f" d="M 141.683594 164.269531 C 141.167969 166.480469 140.132812 168.546875 138.804688 170.316406 C 137.035156 172.75 134.675781 174.667969 131.875 175.847656 C 130.914062 176.289062 129.882812 176.65625 128.777344 176.878906 C 127.527344 177.175781 126.269531 177.324219 124.941406 177.324219 C 123.617188 177.324219 122.363281 177.175781 121.109375 176.878906 C 120 176.65625 118.96875 176.289062 118.011719 175.847656 C 115.210938 174.667969 112.847656 172.75 111.007812 170.316406 C 109.679688 168.546875 108.71875 166.480469 108.128906 164.269531 L 92.640625 139.863281 L 108.644531 154.316406 C 109.3125 152.398438 110.269531 150.703125 111.523438 149.15625 L 89.914062 119.289062 L 117.714844 144.359375 L 117.714844 152.839844 C 117.347656 153.136719 117.050781 153.507812 116.753906 153.875 C 115.503906 155.570312 114.765625 157.5625 114.691406 159.847656 C 114.691406 159.921875 114.691406 159.996094 114.691406 160.070312 C 114.691406 163.390625 116.3125 166.339844 118.746094 168.183594 C 118.820312 168.257812 118.96875 168.332031 119.113281 168.476562 C 119.847656 168.992188 120.738281 169.4375 121.621094 169.730469 C 122.652344 170.097656 123.757812 170.246094 124.941406 170.246094 C 126.046875 170.246094 127.152344 170.097656 128.183594 169.730469 C 129.144531 169.4375 129.953125 168.992188 130.765625 168.476562 C 130.914062 168.328125 130.988281 168.253906 131.132812 168.183594 C 133.566406 166.339844 135.113281 163.390625 135.113281 160.070312 C 135.113281 159.996094 135.113281 159.921875 135.113281 159.847656 C 135.113281 157.5625 134.300781 155.570312 133.046875 153.875 C 132.824219 153.507812 132.53125 153.136719 132.160156 152.839844 L 132.160156 144.359375 C 141.453125 135.953125 150.671875 127.621094 159.960938 119.289062 L 138.355469 149.15625 C 139.605469 150.703125 140.566406 152.398438 141.230469 154.316406 C 146.542969 149.449219 151.921875 144.65625 157.234375 139.863281 Z M 141.683594 164.269531 " fill-opacity="1" fill-rule="evenodd"/></g><g clip-path="url(#9461b3a97f)"><path fill="#32620e" d="M 128.773438 155.9375 C 129.882812 156.96875 130.542969 158.445312 130.542969 160.066406 C 130.542969 163.164062 128.035156 165.671875 124.941406 165.671875 C 121.84375 165.671875 119.261719 163.164062 119.261719 160.066406 C 119.261719 158.441406 119.996094 156.96875 121.105469 155.9375 L 121.105469 127.105469 C 116.015625 125.480469 112.402344 120.761719 112.402344 115.160156 C 112.40625 108.226562 118.011719 102.621094 124.941406 102.621094 C 131.875 102.621094 137.480469 108.226562 137.480469 115.160156 C 137.480469 120.761719 133.792969 125.484375 128.777344 127.105469 L 128.777344 155.9375 Z M 124.941406 109.554688 C 128.039062 109.554688 130.546875 112.0625 130.546875 115.160156 C 130.546875 118.328125 128.039062 120.839844 124.941406 120.839844 C 121.847656 120.839844 119.265625 118.328125 119.265625 115.160156 C 119.265625 112.0625 121.84375 109.554688 124.941406 109.554688 Z M 124.941406 109.554688 " fill-opacity="1" fill-rule="evenodd"/></g><path stroke-linecap="butt" transform="matrix(3.56256, 0, 0, 3.56256, 149.109794, 107.361408)" fill="none" stroke-linejoin="miter" d="M 11.247501 7.156108 L 11.247501 7.482856 C 10.74093 7.530005 10.33085 7.662678 10.018355 7.880876 C 9.70586 8.099074 9.46354 8.370999 9.29249 8.695555 C 9.126922 9.019015 9.018372 9.399491 8.964644 9.835887 C 8.917496 10.27338 8.89447 10.744863 8.89447 11.25253 L 8.89447 13.782093 L 19.696921 13.782093 L 19.696921 11.898353 C 19.696921 11.272267 19.670605 10.701004 19.617974 10.181276 C 19.570826 9.662644 19.467758 9.210898 19.307673 8.828229 C 19.154166 8.438981 18.921714 8.128679 18.609219 7.89842 C 18.296725 7.669257 17.874583 7.530005 17.34389 7.482856 L 17.34389 7.156108 L 26.041112 7.156108 L 26.041112 7.482856 C 25.533445 7.554127 25.121172 7.692283 24.802098 7.89842 C 24.489603 8.105653 24.248379 8.376482 24.07733 8.713099 C 23.911762 9.04862 23.803211 9.429096 23.749484 9.854527 C 23.702336 10.278862 23.67931 10.744863 23.67931 11.25253 L 23.67931 26.647009 C 23.67931 27.183184 23.707818 27.682079 23.767028 28.142598 C 23.83172 28.596537 23.941367 29.006618 24.094873 29.371744 C 24.253862 29.731387 24.489603 30.020856 24.802098 30.239054 C 25.121172 30.457252 25.533445 30.601986 26.041112 30.672161 L 26.041112 31.000006 L 17.34389 31.000006 L 17.34389 30.672161 C 17.851557 30.625012 18.261638 30.498918 18.574132 30.291684 C 18.886627 30.085548 19.125658 29.820201 19.290129 29.495645 C 19.461179 29.171089 19.570826 28.790613 19.617974 28.354217 C 19.670605 27.917821 19.696921 27.434276 19.696921 26.903583 L 19.696921 15.525485 L 8.89447 15.525485 L 8.89447 26.647009 C 8.89447 27.154676 8.917496 27.643703 8.964644 28.115186 C 9.018372 28.587766 9.126922 29.006618 9.29249 29.371744 C 9.46354 29.731387 9.70586 30.026338 10.018355 30.256597 C 10.33085 30.486857 10.74093 30.625012 11.247501 30.672161 L 11.247501 31.000006 L 2.550278 31.000006 L 2.550278 30.672161 C 3.08755 30.601986 3.511885 30.45177 3.82438 30.22151 C 4.136874 29.991251 4.370423 29.702879 4.523929 29.3542 C 4.682918 29.000039 4.785986 28.614081 4.833135 28.195228 C 4.886862 27.770893 4.913177 27.327918 4.913177 26.868496 L 4.913177 11.499236 C 4.913177 11.015692 4.886862 10.547498 4.833135 10.092462 C 4.785986 9.63304 4.677436 9.222959 4.506386 8.863316 C 4.340818 8.497094 4.10727 8.193371 3.806836 7.952147 C 3.506403 7.709826 3.08755 7.554127 2.550278 7.482856 L 2.550278 7.156108 Z M 11.247501 7.156108 " stroke="#ccc14f" stroke-width="2.718645" stroke-opacity="1" stroke-miterlimit="4"/><g fill="#e6df9f" fill-opacity="1"><g transform="translate(153.562994, 217.80076)"><g><path d="M 35.640625 -84.953125 L 35.640625 -83.796875 C 33.828125 -83.617188 32.359375 -83.140625 31.234375 -82.359375 C 30.117188 -81.585938 29.257812 -80.617188 28.65625 -79.453125 C 28.0625 -78.296875 27.675781 -76.941406 27.5 -75.390625 C 27.320312 -73.847656 27.234375 -72.171875 27.234375 -70.359375 L 27.234375 -61.328125 L 65.71875 -61.328125 L 65.71875 -68.046875 C 65.71875 -70.273438 65.628906 -72.316406 65.453125 -74.171875 C 65.285156 -76.023438 64.921875 -77.640625 64.359375 -79.015625 C 63.796875 -80.390625 62.957031 -81.484375 61.84375 -82.296875 C 60.726562 -83.117188 59.222656 -83.617188 57.328125 -83.796875 L 57.328125 -84.953125 L 88.3125 -84.953125 L 88.3125 -83.796875 C 86.5 -83.535156 85.035156 -83.035156 83.921875 -82.296875 C 82.804688 -81.566406 81.945312 -80.597656 81.34375 -79.390625 C 80.738281 -78.191406 80.347656 -76.835938 80.171875 -75.328125 C 80.003906 -73.828125 79.921875 -72.171875 79.921875 -70.359375 L 79.921875 -15.5 C 79.921875 -13.601562 80.023438 -11.835938 80.234375 -10.203125 C 80.453125 -8.566406 80.84375 -7.101562 81.40625 -5.8125 C 81.96875 -4.519531 82.804688 -3.484375 83.921875 -2.703125 C 85.035156 -1.929688 86.5 -1.414062 88.3125 -1.15625 L 88.3125 0 L 57.328125 0 L 57.328125 -1.15625 C 59.128906 -1.332031 60.585938 -1.785156 61.703125 -2.515625 C 62.828125 -3.242188 63.691406 -4.1875 64.296875 -5.34375 C 64.898438 -6.507812 65.285156 -7.867188 65.453125 -9.421875 C 65.628906 -10.972656 65.71875 -12.695312 65.71875 -14.59375 L 65.71875 -55.125 L 27.234375 -55.125 L 27.234375 -15.5 C 27.234375 -13.6875 27.320312 -11.941406 27.5 -10.265625 C 27.675781 -8.585938 28.0625 -7.101562 28.65625 -5.8125 C 29.257812 -4.519531 30.117188 -3.460938 31.234375 -2.640625 C 32.359375 -1.828125 33.828125 -1.332031 35.640625 -1.15625 L 35.640625 0 L 4.640625 0 L 4.640625 -1.15625 C 6.535156 -1.414062 8.039062 -1.953125 9.15625 -2.765625 C 10.28125 -3.585938 11.125 -4.625 11.6875 -5.875 C 12.25 -7.125 12.613281 -8.5 12.78125 -10 C 12.957031 -11.507812 13.046875 -13.082031 13.046875 -14.71875 L 13.046875 -69.453125 C 13.046875 -71.179688 12.957031 -72.863281 12.78125 -74.5 C 12.613281 -76.132812 12.226562 -77.597656 11.625 -78.890625 C 11.019531 -80.179688 10.175781 -81.253906 9.09375 -82.109375 C 8.019531 -82.972656 6.535156 -83.535156 4.640625 -83.796875 L 4.640625 -84.953125 Z M 35.640625 -84.953125 "/></g></g></g><path stroke-linecap="butt" transform="matrix(3.56256, 0, 0, 3.56256, 192.378361, 152.109482)" fill="none" stroke-linejoin="miter" d="M 22.995381 7.155552 L 22.995381 7.483397 C 21.980047 7.67199 21.334225 8.093036 21.056817 8.74763 C 20.780506 9.403321 20.641254 10.249798 20.641254 11.287061 L 20.641254 23.567557 C 20.641254 24.635522 20.464722 25.647566 20.110561 26.602594 C 19.762979 27.552139 19.232287 28.389845 18.518483 29.11571 C 17.804679 29.840478 16.922018 30.416127 15.872694 30.840462 C 14.822273 31.259314 13.607381 31.46874 12.226922 31.46874 C 10.681991 31.46874 9.195174 31.126641 7.768663 30.442442 C 6.346538 29.75276 5.128356 28.838302 4.114119 27.700163 L 4.042848 27.593805 L 7.697392 21.577459 L 8.025238 21.718904 C 7.906819 22.226571 7.791689 22.727659 7.679849 23.223265 C 7.573491 23.71887 7.52086 24.207897 7.52086 24.691442 C 7.52086 25.370159 7.641472 26.007209 7.882696 26.602594 C 8.125017 27.192496 8.455055 27.711128 8.873908 28.159585 C 9.299339 28.60256 9.800427 28.950142 10.378268 29.203428 C 10.962688 29.457809 11.59316 29.583904 12.271877 29.583904 C 13.067916 29.583904 13.748826 29.445748 14.315702 29.16834 C 14.881482 28.890933 15.333229 28.517036 15.66875 28.044456 C 16.010849 27.572972 16.258652 27.030218 16.412158 26.41729 C 16.571147 25.797783 16.651189 25.164022 16.651189 24.51491 L 16.651189 11.46469 C 16.651189 10.886849 16.621585 10.355059 16.562375 9.871515 C 16.504262 9.38797 16.394615 8.972407 16.235626 8.624825 C 16.076638 8.270665 15.8398 7.998739 15.527305 7.810146 C 15.21481 7.61607 14.804729 7.506423 14.298159 7.483397 L 14.298159 7.155552 Z M 22.995381 7.155552 " stroke="#ccc14f" stroke-width="2.718645" stroke-opacity="1" stroke-miterlimit="4"/><g fill="#e6df9f" fill-opacity="1"><g transform="translate(209.74584, 262.548834)"><g><path d="M 64.5625 -84.953125 L 64.5625 -83.796875 C 60.9375 -83.109375 58.628906 -81.597656 57.640625 -79.265625 C 56.648438 -76.941406 56.15625 -73.929688 56.15625 -70.234375 L 56.15625 -26.46875 C 56.15625 -22.675781 55.53125 -19.082031 54.28125 -15.6875 C 53.039062 -12.289062 51.148438 -9.300781 48.609375 -6.71875 C 46.066406 -4.132812 42.921875 -2.085938 39.171875 -0.578125 C 35.429688 0.921875 31.109375 1.671875 26.203125 1.671875 C 20.703125 1.671875 15.410156 0.445312 10.328125 -2 C 5.253906 -4.457031 0.90625 -7.707031 -2.71875 -11.75 L -2.96875 -12.140625 L 10.078125 -33.5625 L 11.234375 -33.046875 C 10.804688 -31.242188 10.394531 -29.457031 10 -27.6875 C 9.613281 -25.925781 9.421875 -24.1875 9.421875 -22.46875 C 9.421875 -20.050781 9.847656 -17.789062 10.703125 -15.6875 C 11.566406 -13.582031 12.753906 -11.734375 14.265625 -10.140625 C 15.773438 -8.546875 17.5625 -7.296875 19.625 -6.390625 C 21.6875 -5.484375 23.925781 -5.03125 26.34375 -5.03125 C 29.175781 -5.03125 31.601562 -5.523438 33.625 -6.515625 C 35.65625 -7.503906 37.269531 -8.835938 38.46875 -10.515625 C 39.675781 -12.203125 40.554688 -14.140625 41.109375 -16.328125 C 41.671875 -18.523438 41.953125 -20.785156 41.953125 -23.109375 L 41.953125 -69.59375 C 41.953125 -71.65625 41.84375 -73.546875 41.625 -75.265625 C 41.414062 -76.992188 41.03125 -78.476562 40.46875 -79.71875 C 39.914062 -80.96875 39.078125 -81.9375 37.953125 -82.625 C 36.835938 -83.3125 35.375 -83.703125 33.5625 -83.796875 L 33.5625 -84.953125 Z M 64.5625 -84.953125 "/></g></g></g></svg>