<svg xmlns="http://www.w3.org/2000/svg" xmlns:xlink="http://www.w3.org/1999/xlink" width="1600" zoomAndPan="magnify" viewBox="0 0 1200 74.999997" height="100" preserveAspectRatio="xMidYMid meet" version="1.0"><defs><clipPath id="e4aa031c68"><path d="M 0 0 L 193 0 L 193 75 L 0 75 Z M 0 0 " clip-rule="nonzero"/></clipPath><clipPath id="91886dbd18"><path d="M 192.367188 61.113281 C 189.351562 60.714844 187.949219 62.113281 182.867188 62.210938 C 180.429688 60.285156 181.46875 62.015625 175.832031 61.441406 C 175.460938 61.984375 175.363281 61.332031 175.359375 61.179688 C 175.140625 60.96875 174.386719 61.789062 175.164062 61.398438 C 176.351562 62.832031 169.648438 60.25 167.191406 60.847656 C 162.507812 61.097656 157.332031 61.425781 153.660156 63.554688 C 152.601562 63.167969 153.671875 63.527344 150.542969 64.335938 C 149.730469 65.058594 148.289062 63.699219 146.992188 65.324219 C 147.511719 67.085938 144.070312 66.175781 141.335938 69.617188 C 140.421875 68.945312 138.175781 71.488281 128.792969 71.277344 C 127.867188 72.945312 128.652344 70.289062 127.808594 70.707031 C 125.4375 70.945312 124.117188 72.449219 122.832031 71.726562 C 120.585938 72.152344 116.980469 69.910156 114.472656 69.941406 C 110.730469 68.574219 108.542969 71.425781 103.835938 72.523438 C 93.351562 70.691406 91.863281 73.601562 79.503906 75 C 75.589844 74.832031 72.546875 71.871094 67.820312 71.59375 C 67.210938 70.757812 64.832031 72.273438 64.027344 71.339844 C 63.441406 70 62.679688 71.066406 62.503906 70.949219 C 61.535156 70.027344 61.023438 70.535156 59.367188 69.96875 C 56.355469 69.269531 54.394531 69.335938 52.492188 66.925781 C 51.589844 67.363281 47.371094 66.652344 45.808594 65.199219 C 45.527344 64.554688 44.214844 66.613281 44.488281 64.832031 C 43.558594 64.859375 43.148438 65.199219 42.886719 64.296875 C 42.195312 63.945312 41.289062 63.675781 40.59375 64.390625 C 39.882812 64.503906 40.714844 63.0625 39.273438 63.996094 C 37.628906 60.90625 34.550781 63.289062 31.996094 61.460938 C 27.601562 61.511719 21.085938 62.328125 16.078125 62.949219 C 12.894531 60.808594 7.324219 59.65625 3.132812 60.414062 C -1.621094 57.636719 0.589844 70.335938 0.0195312 2.890625 C 1.933594 -0.699219 -7.875 0.261719 24.863281 0.144531 C 68.804688 -0.0234375 117.136719 0.472656 164.65625 0 C 173.507812 0.25 181.347656 0.1875 189.566406 0.03125 C 194.429688 1.015625 191.714844 -4.890625 192.808594 28.234375 C 192.101562 39.46875 192.851562 50.90625 192.367188 61.113281 Z M 192.367188 61.113281 " clip-rule="nonzero"/></clipPath><clipPath id="4d3a22c66e"><path d="M 185.292969 0 L 389.75 0 L 389.75 75 L 185.292969 75 Z M 185.292969 0 " clip-rule="nonzero"/></clipPath><clipPath id="9c82bbf9d9"><path d="M 389.011719 61.066406 C 385.824219 60.644531 384.335938 62.121094 378.964844 62.226562 C 376.386719 60.191406 377.484375 62.019531 371.523438 61.410156 C 371.132812 61.984375 371.03125 61.300781 371.027344 61.136719 C 370.792969 60.914062 370 61.78125 370.820312 61.367188 C 372.078125 62.882812 364.988281 60.152344 362.386719 60.785156 C 357.4375 61.050781 351.964844 61.394531 348.082031 63.648438 C 346.964844 63.242188 348.09375 63.617188 344.785156 64.476562 C 343.925781 65.238281 342.402344 63.800781 341.03125 65.519531 C 341.578125 67.378906 337.941406 66.417969 335.050781 70.054688 C 334.082031 69.351562 331.707031 72.039062 321.785156 71.8125 C 320.808594 73.578125 321.640625 70.765625 320.746094 71.210938 C 318.238281 71.460938 316.84375 73.054688 315.484375 72.289062 C 313.109375 72.738281 309.296875 70.367188 306.644531 70.402344 C 302.6875 68.953125 300.375 71.972656 295.398438 73.132812 C 284.3125 71.195312 282.738281 74.269531 269.667969 75.75 C 265.53125 75.570312 262.316406 72.441406 257.3125 72.148438 C 256.667969 71.265625 254.152344 72.867188 253.304688 71.878906 C 252.683594 70.464844 251.878906 71.589844 251.691406 71.464844 C 250.667969 70.492188 250.128906 71.027344 248.378906 70.429688 C 245.191406 69.691406 243.117188 69.761719 241.105469 67.214844 C 240.15625 67.675781 235.691406 66.921875 234.039062 65.386719 C 233.742188 64.703125 232.355469 66.882812 232.644531 65 C 231.664062 65.027344 231.226562 65.386719 230.953125 64.433594 C 230.21875 64.058594 229.261719 63.777344 228.527344 64.53125 C 227.777344 64.652344 228.652344 63.128906 227.132812 64.113281 C 225.390625 60.847656 222.136719 63.363281 219.433594 61.433594 C 214.789062 61.488281 207.898438 62.351562 202.601562 63.007812 C 199.238281 60.742188 193.347656 59.523438 188.914062 60.328125 C 183.890625 57.390625 186.226562 70.816406 185.625 -0.5 C 187.648438 -4.292969 177.273438 -3.277344 211.894531 -3.402344 C 258.355469 -3.578125 309.460938 -3.054688 359.710938 -3.554688 C 369.066406 -3.289062 377.359375 -3.355469 386.046875 -3.519531 C 391.191406 -2.480469 388.320312 -8.722656 389.476562 26.300781 C 388.730469 38.179688 389.523438 50.273438 389.011719 61.066406 Z M 389.011719 61.066406 " clip-rule="nonzero"/></clipPath><clipPath id="a285299640"><path d="M 387.257812 0 L 582.550781 0 L 582.550781 75 L 387.257812 75 Z M 387.257812 0 " clip-rule="nonzero"/></clipPath><clipPath id="cd7c39f520"><path d="M 581.84375 60.976562 C 578.796875 60.570312 577.378906 61.984375 572.246094 62.082031 C 569.785156 60.136719 570.835938 61.882812 565.140625 61.304688 C 564.769531 61.851562 564.671875 61.199219 564.667969 61.042969 C 564.445312 60.828125 563.683594 61.65625 564.46875 61.261719 C 565.667969 62.710938 558.898438 60.101562 556.414062 60.703125 C 551.683594 60.960938 546.457031 61.289062 542.75 63.441406 C 541.683594 63.050781 542.761719 63.414062 539.597656 64.230469 C 538.78125 64.960938 537.324219 63.585938 536.015625 65.226562 C 536.539062 67.003906 533.0625 66.089844 530.300781 69.5625 C 529.378906 68.886719 527.109375 71.453125 517.632812 71.242188 C 516.695312 72.925781 517.492188 70.242188 516.636719 70.664062 C 514.242188 70.902344 512.910156 72.421875 511.613281 71.691406 C 509.347656 72.121094 505.703125 69.859375 503.167969 69.890625 C 499.390625 68.507812 497.179688 71.390625 492.425781 72.5 C 481.839844 70.648438 480.332031 73.585938 467.851562 75 C 463.898438 74.828125 460.828125 71.839844 456.050781 71.558594 C 455.433594 70.714844 453.03125 72.246094 452.21875 71.304688 C 451.628906 69.949219 450.859375 71.027344 450.679688 70.90625 C 449.699219 69.976562 449.1875 70.492188 447.511719 69.917969 C 444.472656 69.210938 442.492188 69.28125 440.566406 66.847656 C 439.660156 67.285156 435.398438 66.566406 433.816406 65.097656 C 433.53125 64.449219 432.210938 66.527344 432.484375 64.730469 C 431.546875 64.757812 431.132812 65.097656 430.871094 64.191406 C 430.167969 63.832031 429.253906 63.5625 428.554688 64.285156 C 427.835938 64.402344 428.675781 62.945312 427.21875 63.886719 C 425.558594 60.765625 422.449219 63.171875 419.867188 61.324219 C 415.429688 61.375 408.847656 62.203125 403.789062 62.828125 C 400.578125 60.664062 394.949219 59.503906 390.714844 60.269531 C 385.917969 57.460938 388.148438 70.289062 387.570312 2.167969 C 389.507812 -1.457031 379.597656 -0.484375 412.667969 -0.601562 C 457.042969 -0.773438 505.859375 -0.273438 553.855469 -0.75 C 562.792969 -0.496094 570.714844 -0.558594 579.011719 -0.71875 C 583.929688 0.273438 581.183594 -5.6875 582.289062 27.769531 C 581.574219 39.113281 582.332031 50.664062 581.84375 60.976562 Z M 581.84375 60.976562 " clip-rule="nonzero"/></clipPath><clipPath id="ddfb09d1a8"><path d="M 576.582031 1.109375 L 778.976562 1.109375 L 778.976562 75 L 576.582031 75 Z M 576.582031 1.109375 " clip-rule="nonzero"/></clipPath><clipPath id="0203b17205"><path d="M 778.46875 62.835938 C 775.304688 62.429688 773.832031 63.84375 768.496094 63.941406 C 765.941406 61.996094 767.03125 63.746094 761.113281 63.164062 C 760.726562 63.710938 760.625 63.058594 760.621094 62.902344 C 760.390625 62.6875 759.597656 63.519531 760.414062 63.121094 C 761.664062 64.570312 754.628906 61.960938 752.046875 62.566406 C 747.132812 62.820312 741.703125 63.148438 737.847656 65.300781 C 736.738281 64.910156 737.859375 65.273438 734.574219 66.089844 C 733.722656 66.820312 732.210938 65.449219 730.851562 67.085938 C 731.394531 68.867188 727.78125 67.949219 724.914062 71.421875 C 723.953125 70.746094 721.59375 73.316406 711.75 73.101562 C 710.777344 74.785156 711.601562 72.101562 710.714844 72.527344 C 708.226562 72.761719 706.839844 74.285156 705.492188 73.554688 C 703.136719 73.980469 699.351562 71.71875 696.71875 71.75 C 692.792969 70.371094 690.496094 73.25 685.554688 74.359375 C 674.554688 72.507812 672.992188 75.445312 660.019531 76.859375 C 655.914062 76.691406 652.722656 73.699219 647.757812 73.417969 C 647.117188 72.578125 644.621094 74.105469 643.777344 73.164062 C 643.164062 71.8125 642.363281 72.886719 642.179688 72.769531 C 641.160156 71.839844 640.625 72.351562 638.886719 71.777344 C 635.726562 71.074219 633.667969 71.140625 631.671875 68.707031 C 630.726562 69.148438 626.296875 68.429688 624.65625 66.960938 C 624.363281 66.308594 622.988281 68.390625 623.273438 66.589844 C 622.300781 66.617188 621.867188 66.960938 621.59375 66.050781 C 620.863281 65.695312 619.917969 65.421875 619.1875 66.144531 C 618.441406 66.261719 619.3125 64.804688 617.800781 65.746094 C 616.074219 62.625 612.84375 65.03125 610.164062 63.183594 C 605.550781 63.238281 598.710938 64.0625 593.457031 64.6875 C 590.117188 62.527344 584.269531 61.363281 579.871094 62.128906 C 574.949219 59.320312 577.203125 72.148438 576.605469 4.027344 C 578.613281 0.402344 568.628906 1.375 602.679688 1.257812 C 648.792969 1.085938 699.515625 1.585938 749.386719 1.109375 C 758.675781 1.363281 766.90625 1.300781 775.527344 1.140625 C 780.570312 2.132812 777.785156 -3.828125 778.933594 29.628906 C 778.191406 40.972656 778.976562 52.527344 778.46875 62.835938 Z M 778.46875 62.835938 " clip-rule="nonzero"/></clipPath><clipPath id="6e0a434bd2"><path d="M 777.292969 1.109375 L 981.933594 1.109375 L 981.933594 75 L 777.292969 75 Z M 777.292969 1.109375 " clip-rule="nonzero"/></clipPath><clipPath id="a6afcfaff4"><path d="M 981.394531 61.320312 C 978.195312 60.925781 976.703125 62.304688 971.3125 62.398438 C 968.730469 60.503906 969.832031 62.207031 963.847656 61.640625 C 963.457031 62.175781 963.355469 61.535156 963.351562 61.386719 C 963.117188 61.175781 962.316406 61.984375 963.140625 61.597656 C 964.402344 63.011719 957.292969 60.46875 954.679688 61.054688 C 949.710938 61.304688 944.222656 61.625 940.328125 63.722656 C 939.203125 63.34375 940.339844 63.695312 937.015625 64.496094 C 936.15625 65.207031 934.628906 63.867188 933.253906 65.464844 C 933.800781 67.203125 930.152344 66.308594 927.25 69.695312 C 926.28125 69.035156 923.894531 71.542969 913.941406 71.332031 C 912.957031 72.976562 913.792969 70.355469 912.898438 70.773438 C 910.382812 71.003906 908.980469 72.488281 907.617188 71.773438 C 905.234375 72.191406 901.410156 69.984375 898.746094 70.015625 C 894.777344 68.667969 892.453125 71.480469 887.460938 72.558594 C 876.339844 70.757812 874.757812 73.621094 861.644531 75 C 857.496094 74.832031 854.265625 71.917969 849.25 71.644531 C 848.601562 70.820312 846.078125 72.3125 845.226562 71.394531 C 844.601562 70.074219 843.796875 71.125 843.609375 71.007812 C 842.578125 70.101562 842.039062 70.601562 840.28125 70.042969 C 837.085938 69.355469 835.003906 69.421875 832.984375 67.046875 C 832.03125 67.476562 827.554688 66.777344 825.894531 65.34375 C 825.59375 64.707031 824.207031 66.738281 824.492188 64.984375 C 823.511719 65.007812 823.070312 65.34375 822.796875 64.457031 C 822.058594 64.109375 821.101562 63.84375 820.363281 64.550781 C 819.609375 64.660156 820.492188 63.238281 818.960938 64.15625 C 817.21875 61.113281 813.953125 63.460938 811.242188 61.660156 C 806.578125 61.710938 799.664062 62.515625 794.351562 63.128906 C 790.976562 61.015625 785.0625 59.882812 780.613281 60.628906 C 775.765625 57.890625 777.917969 70.402344 777.3125 3.957031 C 779.34375 0.449219 769.855469 1.371094 803.675781 1.253906 C 850.292969 1.089844 901.574219 1.574219 951.996094 1.109375 C 961.382812 1.359375 969.703125 1.296875 978.421875 1.140625 C 983.394531 2.109375 980.703125 -3.503906 981.863281 28.929688 C 981.113281 39.996094 981.902344 51.261719 981.394531 61.320312 Z M 981.394531 61.320312 " clip-rule="nonzero"/></clipPath><clipPath id="73f9a7b7e2"><path d="M 969.488281 0 L 1164.78125 0 L 1164.78125 75 L 969.488281 75 Z M 969.488281 0 " clip-rule="nonzero"/></clipPath><clipPath id="34642032e5"><path d="M 1164.074219 61.726562 C 1161.03125 61.320312 1159.609375 62.734375 1154.476562 62.832031 C 1152.015625 60.886719 1153.066406 62.632812 1147.371094 62.054688 C 1147 62.601562 1146.902344 61.949219 1146.898438 61.792969 C 1146.675781 61.578125 1145.914062 62.40625 1146.699219 62.011719 C 1147.898438 63.460938 1141.128906 60.851562 1138.644531 61.453125 C 1133.914062 61.710938 1128.691406 62.039062 1124.980469 64.191406 C 1123.914062 63.800781 1124.992188 64.164062 1121.832031 64.980469 C 1121.011719 65.710938 1119.554688 64.335938 1118.246094 65.976562 C 1118.769531 67.753906 1115.292969 66.839844 1112.535156 70.3125 C 1111.609375 69.636719 1109.339844 72.203125 1099.863281 71.992188 C 1098.925781 73.675781 1099.722656 70.992188 1098.867188 71.414062 C 1096.476562 71.652344 1095.140625 73.171875 1093.84375 72.441406 C 1091.578125 72.871094 1087.933594 70.609375 1085.398438 70.640625 C 1081.621094 69.257812 1079.410156 72.140625 1074.65625 73.25 C 1064.070312 71.398438 1062.5625 74.335938 1050.082031 75.75 C 1046.128906 75.578125 1043.058594 72.589844 1038.28125 72.308594 C 1037.664062 71.464844 1035.261719 72.996094 1034.449219 72.054688 C 1033.859375 70.699219 1033.089844 71.777344 1032.910156 71.65625 C 1031.933594 70.726562 1031.417969 71.242188 1029.742188 70.667969 C 1026.703125 69.960938 1024.722656 70.03125 1022.796875 67.597656 C 1021.890625 68.035156 1017.628906 67.316406 1016.046875 65.847656 C 1015.765625 65.199219 1014.441406 67.277344 1014.714844 65.480469 C 1013.777344 65.507812 1013.363281 65.847656 1013.101562 64.941406 C 1012.398438 64.582031 1011.484375 64.3125 1010.785156 65.035156 C 1010.066406 65.152344 1010.90625 63.695312 1009.449219 64.636719 C 1007.789062 61.515625 1004.679688 63.921875 1002.097656 62.074219 C 997.660156 62.125 991.078125 62.953125 986.019531 63.578125 C 982.808594 61.414062 977.179688 60.253906 972.945312 61.019531 C 968.148438 58.210938 970.378906 71.039062 969.800781 2.917969 C 971.738281 -0.707031 961.828125 0.265625 994.898438 0.148438 C 1039.273438 -0.0234375 1088.089844 0.476562 1136.085938 0 C 1145.023438 0.253906 1152.945312 0.191406 1161.242188 0.03125 C 1166.160156 1.023438 1163.414062 -4.9375 1164.519531 28.519531 C 1163.804688 39.863281 1164.5625 51.414062 1164.074219 61.726562 Z M 1164.074219 61.726562 " clip-rule="nonzero"/></clipPath><clipPath id="711957c034"><path d="M 1145.5625 0 L 1200 0 L 1200 75 L 1145.5625 75 Z M 1145.5625 0 " clip-rule="nonzero"/></clipPath><clipPath id="ed2e7f1ada"><path d="M 1340.152344 61.351562 C 1337.105469 60.945312 1335.6875 62.359375 1330.554688 62.457031 C 1328.09375 60.511719 1329.144531 62.257812 1323.449219 61.679688 C 1323.074219 62.226562 1322.976562 61.574219 1322.972656 61.417969 C 1322.75 61.203125 1321.992188 62.03125 1322.773438 61.636719 C 1323.976562 63.085938 1317.207031 60.476562 1314.722656 61.078125 C 1309.992188 61.335938 1304.765625 61.664062 1301.058594 63.816406 C 1299.988281 63.425781 1301.070312 63.789062 1297.90625 64.605469 C 1297.085938 65.335938 1295.632812 63.960938 1294.324219 65.601562 C 1294.84375 67.378906 1291.371094 66.464844 1288.609375 69.9375 C 1287.6875 69.261719 1285.417969 71.828125 1275.941406 71.617188 C 1275.003906 73.300781 1275.800781 70.617188 1274.945312 71.039062 C 1272.550781 71.277344 1271.21875 72.796875 1269.917969 72.066406 C 1267.652344 72.496094 1264.011719 70.234375 1261.476562 70.265625 C 1257.699219 68.882812 1255.488281 71.765625 1250.734375 72.875 C 1240.144531 71.023438 1238.640625 73.960938 1226.15625 75.375 C 1222.207031 75.203125 1219.132812 72.214844 1214.355469 71.933594 C 1213.742188 71.089844 1211.339844 72.621094 1210.527344 71.679688 C 1209.933594 70.324219 1209.167969 71.402344 1208.988281 71.28125 C 1208.007812 70.351562 1207.492188 70.867188 1205.820312 70.292969 C 1202.777344 69.585938 1200.796875 69.65625 1198.875 67.222656 C 1197.964844 67.660156 1193.703125 66.941406 1192.125 65.472656 C 1191.839844 64.824219 1190.519531 66.902344 1190.792969 65.105469 C 1189.855469 65.132812 1189.4375 65.472656 1189.175781 64.566406 C 1188.476562 64.207031 1187.5625 63.9375 1186.859375 64.660156 C 1186.144531 64.777344 1186.980469 63.320312 1185.527344 64.261719 C 1183.867188 61.140625 1180.757812 63.546875 1178.175781 61.699219 C 1173.738281 61.75 1167.15625 62.578125 1162.097656 63.203125 C 1158.882812 61.039062 1153.257812 59.878906 1149.023438 60.644531 C 1144.222656 57.835938 1146.457031 70.664062 1145.878906 2.542969 C 1147.8125 -1.082031 1137.90625 -0.109375 1170.972656 -0.226562 C 1215.351562 -0.398438 1264.167969 0.101562 1312.164062 -0.375 C 1321.101562 -0.121094 1329.023438 -0.183594 1337.320312 -0.34375 C 1342.234375 0.648438 1339.492188 -5.3125 1340.597656 28.144531 C 1339.882812 39.488281 1340.640625 51.039062 1340.152344 61.351562 Z M 1340.152344 61.351562 " clip-rule="nonzero"/></clipPath></defs><g clip-path="url(#e4aa031c68)"><g clip-path="url(#91886dbd18)"><path fill="#ffffff" d="M 0 0 L 192.773438 0 L 192.773438 75 L 0 75 Z M 0 0 " fill-opacity="1" fill-rule="nonzero"/></g></g><g clip-path="url(#4d3a22c66e)"><g clip-path="url(#9c82bbf9d9)"><path fill="#ffffff" d="M 185.601562 -3.554688 L 389.441406 -3.554688 L 389.441406 75.75 L 185.601562 75.75 Z M 185.601562 -3.554688 " fill-opacity="1" fill-rule="nonzero"/></g></g><g clip-path="url(#a285299640)"><g clip-path="url(#cd7c39f520)"><path fill="#ffffff" d="M 387.550781 -0.75 L 582.253906 -0.75 L 582.253906 75 L 387.550781 75 Z M 387.550781 -0.75 " fill-opacity="1" fill-rule="nonzero"/></g></g><g clip-path="url(#ddfb09d1a8)"><g clip-path="url(#0203b17205)"><path fill="#ffffff" d="M 576.582031 1.109375 L 778.976562 1.109375 L 778.976562 76.859375 L 576.582031 76.859375 Z M 576.582031 1.109375 " fill-opacity="1" fill-rule="nonzero"/></g></g><g clip-path="url(#6e0a434bd2)"><g clip-path="url(#a6afcfaff4)"><path fill="#ffffff" d="M 777.292969 1.109375 L 981.933594 1.109375 L 981.933594 75 L 777.292969 75 Z M 777.292969 1.109375 " fill-opacity="1" fill-rule="nonzero"/></g></g><g clip-path="url(#73f9a7b7e2)"><g clip-path="url(#34642032e5)"><path fill="#ffffff" d="M 969.78125 0 L 1164.484375 0 L 1164.484375 75.75 L 969.78125 75.75 Z M 969.78125 0 " fill-opacity="1" fill-rule="nonzero"/></g></g><g clip-path="url(#711957c034)"><g clip-path="url(#ed2e7f1ada)"><path fill="#ffffff" d="M 1145.859375 -0.375 L 1340.5625 -0.375 L 1340.5625 75.375 L 1145.859375 75.375 Z M 1145.859375 -0.375 " fill-opacity="1" fill-rule="nonzero"/></g></g></svg>